{
  "source": "C:\\Users\\Peter\\Desktop\\stuff\\MIUN\\quantitative_research\\video_compression\\videos\\BVI-HD\\FishAndRock_1920x1080_30fps.mp4",
  "output": "C:\\Users\\Peter\\Desktop\\stuff\\MIUN\\quantitative_research\\video_compression\\compressed_videos\\BVI-HD\\av1\\12\\FishAndRock_1920x1080_30fps_av1.mkv",
  "codec": "av1",
  "ok": "Input #0, mov,mp4,m4a,3gp,3g2,mj2, from 'C:\\Users\\Peter\\Desktop\\stuff\\MIUN\\quantitative_research\\video_compression\\videos\\BVI-HD\\FishAndRock_1920x1080_30fps.mp4':\n  Metadata:\n    major_brand     : isom\n    minor_version   : 512\n    compatible_brands: isomiso2avc1mp41\n    encoder         : Lavf54.28.101\n  Duration: 00:00:05.00, start: 0.000000, bitrate: 251564 kb/s\n  Stream #0:0[0x1](und): Video: h264 (High 4:4:4 Predictive) (avc1 / 0x31637661), yuv420p(progressive), 1920x1080, 251561 kb/s, 30 fps, 30 tbr, 30 tbn (default)\n    Metadata:\n      handler_name    : VideoHandler\n      vendor_id       : [0][0][0][0]\n[out#0/matroska @ 0000020c01cf9340] Codec AVOption b:a (set bitrate (in bits/s)) has not been used for any stream. The most likely reason is either wrong type (e.g. a video option with no video streams) or that it is a private option of some decoder which was not actually used for any stream.\nStream mapping:\n  Stream #0:0 -> #0:0 (h264 (native) -> av1 (libsvtav1))\nPress [q] to stop, [?] for help\nSvt[info]: -------------------------------------------\nSvt[info]: SVT [version]:\tSVT-AV1 Encoder Lib v3.1.0-19-g6ecfe8ec\nSvt[info]: SVT [build]  :\tGCC 15.2.0\t 64 bit\nSvt[info]: LIB Build date: Aug 17 2025 11:37:13\nSvt[info]: -------------------------------------------\nSvt[info]: Level of Parallelism: 5\nSvt[info]: Number of PPCS 93\nSvt[info]: [asm level on system : up to avx2]\nSvt[info]: [asm level selected : up to avx2]\nSvt[info]: -------------------------------------------\nSvt[info]: SVT [config]: main profile\ttier (auto)\tlevel (auto)\nSvt[info]: SVT [config]: width / height / fps numerator / fps denominator \t\t: 1920 / 1080 / 30 / 1\nSvt[info]: SVT [config]: bit-depth / color format \t\t\t\t\t: 8 / YUV420\nSvt[info]: SVT [config]: preset / tune / pred struct \t\t\t\t\t: 4 / PSNR / random access\nSvt[info]: SVT [config]: gop size / mini-gop size / key-frame type \t\t\t: 161 / 16 / key frame\nSvt[info]: SVT [config]: BRC mode / target bitrate (kbps)\t\t\t\t: VBR / 12000 \nSvt[info]: SVT [config]: AQ mode / Variance Boost \t\t\t\t\t: 2 / 0\nSvt[info]: SVT [config]: sharpness / luminance-based QP bias \t\t\t\t: 0 / 0\nSvt[info]: SVT [config]: QP scale compress strength \t\t\t\t\t: 0\nSvt[info]: -------------------------------------------\nOutput #0, matroska, to 'C:\\Users\\Peter\\Desktop\\stuff\\MIUN\\quantitative_research\\video_compression\\compressed_videos\\BVI-HD\\av1\\12\\FishAndRock_1920x1080_30fps_av1.mkv':\n  Metadata:\n    major_brand     : isom\n    minor_version   : 512\n    compatible_brands: isomiso2avc1mp41\n    encoder         : Lavf62.3.100\n  Stream #0:0(und): Video: av1 (AV01 / 0x31305641), yuv420p(tv, progressive), 1920x1080, q=2-31, 12000 kb/s, 30 fps, 1k tbn (default)\n    Metadata:\n      encoder         : Lavc62.11.100 libsvtav1\n      handler_name    : VideoHandler\n      vendor_id       : [0][0][0][0]\n    Side data:\n      cpb: bitrate max/min/avg: 0/0/12000000 buffer size: 12000000 vbv_delay: N/A\nframe=    0 fps=0.0 q=0.0 size=       0KiB time=N/A bitrate=N/A speed=N/A elapsed=0:00:01.09    \nframe=    0 fps=0.0 q=0.0 size=       0KiB time=N/A bitrate=N/A speed=N/A elapsed=0:00:01.67    \nframe=    0 fps=0.0 q=0.0 size=       0KiB time=N/A bitrate=N/A speed=N/A elapsed=0:00:02.19    \nframe=    0 fps=0.0 q=0.0 size=       0KiB time=N/A bitrate=N/A speed=N/A elapsed=0:00:02.79    \nframe=    0 fps=0.0 q=0.0 size=       0KiB time=N/A bitrate=N/A speed=N/A elapsed=0:00:03.45    \nframe=    0 fps=0.0 q=0.0 size=       0KiB time=N/A bitrate=N/A speed=N/A elapsed=0:00:04.22    \nframe=    1 fps=0.2 q=6.0 size=       1KiB time=00:00:00.00 bitrate=N/A speed=   0x elapsed=0:00:04.82    \nframe=    1 fps=0.2 q=6.0 size=       1KiB time=00:00:00.00 bitrate=N/A speed=   0x elapsed=0:00:05.51    \nframe=    1 fps=0.2 q=6.0 size=       1KiB time=00:00:00.00 bitrate=N/A speed=   0x elapsed=0:00:06.06    \nframe=    2 fps=0.3 q=14.0 size=       1KiB time=00:00:00.03 bitrate= 171.1kbits/s speed=0.00504x elapsed=0:00:06.60    \nframe=    4 fps=0.6 q=14.0 size=       1KiB time=00:00:00.10 bitrate=  57.0kbits/s speed=0.014x elapsed=0:00:07.15    \nframe=    6 fps=0.8 q=12.0 size=       1KiB time=00:00:00.16 bitrate=  34.2kbits/s speed=0.0216x elapsed=0:00:07.70    \nframe=    7 fps=0.9 q=12.0 size=       1KiB time=00:00:00.20 bitrate=  28.5kbits/s speed=0.0243x elapsed=0:00:08.22    \nframe=   11 fps=1.3 q=10.0 size=       1KiB time=00:00:00.33 bitrate=  17.1kbits/s speed=0.0381x elapsed=0:00:08.74    \nframe=   16 fps=1.7 q=10.0 size=       1KiB time=00:00:00.50 bitrate=  11.4kbits/s speed=0.0538x elapsed=0:00:09.28    \nframe=   19 fps=1.9 q=12.0 size=       1KiB time=00:00:00.60 bitrate=   9.5kbits/s speed=0.0606x elapsed=0:00:09.89    \nframe=   22 fps=2.1 q=13.0 size=       1KiB time=00:00:00.70 bitrate=   8.1kbits/s speed=0.0667x elapsed=0:00:10.49    \nframe=   23 fps=2.1 q=12.0 size=       1KiB time=00:00:00.73 bitrate=   7.8kbits/s speed=0.0661x elapsed=0:00:11.09    \nframe=   26 fps=2.2 q=13.0 size=       1KiB time=00:00:00.83 bitrate=   6.8kbits/s speed=0.0717x elapsed=0:00:11.62    \nframe=   29 fps=2.3 q=9.0 size=       1KiB time=00:00:00.90 bitrate=   6.3kbits/s speed=0.0729x elapsed=0:00:12.35    \nframe=   34 fps=2.6 q=15.0 size=       1KiB time=00:00:01.06 bitrate=   5.3kbits/s speed=0.0823x elapsed=0:00:12.95    \nframe=   36 fps=2.7 q=14.0 size=       1KiB time=00:00:01.16 bitrate=   4.9kbits/s speed=0.0862x elapsed=0:00:13.52    \nframe=   38 fps=2.7 q=14.0 size=       1KiB time=00:00:01.23 bitrate=   4.6kbits/s speed=0.0874x elapsed=0:00:14.11    \nframe=   39 fps=2.6 q=13.0 size=       1KiB time=00:00:01.26 bitrate=   4.5kbits/s speed=0.0859x elapsed=0:00:14.74    \nframe=   42 fps=2.7 q=14.0 size=       1KiB time=00:00:01.36 bitrate=   4.2kbits/s speed=0.0884x elapsed=0:00:15.45    \nframe=   44 fps=2.7 q=13.0 size=       1KiB time=00:00:01.43 bitrate=   4.0kbits/s speed=0.0891x elapsed=0:00:16.09    \nframe=   49 fps=2.9 q=4.0 size=       1KiB time=00:00:01.60 bitrate=   3.6kbits/s speed=0.0958x elapsed=0:00:16.69    \nframe=   52 fps=3.0 q=15.0 size=       1KiB time=00:00:01.66 bitrate=   3.4kbits/s speed=0.0962x elapsed=0:00:17.33    \nframe=   57 fps=3.2 q=11.0 size=       1KiB time=00:00:01.86 bitrate=   3.1kbits/s speed=0.104x elapsed=0:00:17.93    \nframe=   59 fps=3.2 q=13.0 size=       1KiB time=00:00:01.86 bitrate=   3.1kbits/s speed= 0.1x elapsed=0:00:18.64    \nframe=   61 fps=3.2 q=11.0 size=       1KiB time=00:00:02.00 bitrate=   2.9kbits/s speed=0.104x elapsed=0:00:19.27    \nframe=   65 fps=3.2 q=6.0 size=       1KiB time=00:00:02.13 bitrate=   2.7kbits/s speed=0.107x elapsed=0:00:20.03    \nframe=   69 fps=3.3 q=13.0 size=       1KiB time=00:00:02.26 bitrate=   2.5kbits/s speed=0.11x elapsed=0:00:20.66    \nframe=   73 fps=3.4 q=11.0 size=       1KiB time=00:00:02.40 bitrate=   2.4kbits/s speed=0.113x elapsed=0:00:21.23    \nframe=   73 fps=3.3 q=11.0 size=       1KiB time=00:00:02.40 bitrate=   2.4kbits/s speed=0.11x elapsed=0:00:21.85    \nframe=   77 fps=3.4 q=11.0 size=       1KiB time=00:00:02.53 bitrate=   2.3kbits/s speed=0.113x elapsed=0:00:22.39    \nframe=   81 fps=3.5 q=6.0 size=       1KiB time=00:00:02.66 bitrate=   2.1kbits/s speed=0.116x elapsed=0:00:23.03    \nframe=   85 fps=3.6 q=13.0 size=       1KiB time=00:00:02.80 bitrate=   2.0kbits/s speed=0.119x elapsed=0:00:23.60    \nframe=   87 fps=3.6 q=11.0 size=       1KiB time=00:00:02.86 bitrate=   2.0kbits/s speed=0.119x elapsed=0:00:24.16    \nframe=   89 fps=3.6 q=11.0 size=       1KiB time=00:00:02.93 bitrate=   1.9kbits/s speed=0.119x elapsed=0:00:24.68    \nframe=   93 fps=3.7 q=11.0 size=       1KiB time=00:00:03.06 bitrate=   1.9kbits/s speed=0.122x elapsed=0:00:25.22    \nframe=   97 fps=3.8 q=6.0 size=       1KiB time=00:00:03.20 bitrate=   1.8kbits/s speed=0.124x elapsed=0:00:25.77    \nframe=  105 fps=4.0 q=11.0 size=    5376KiB time=00:00:03.40 bitrate=12953.0kbits/s speed=0.129x elapsed=0:00:26.29    \nframe=  105 fps=3.9 q=11.0 size=    5376KiB time=00:00:03.46 bitrate=12703.9kbits/s speed=0.129x elapsed=0:00:26.86    \nframe=  109 fps=4.0 q=12.0 size=    5376KiB time=00:00:03.60 bitrate=12233.4kbits/s speed=0.131x elapsed=0:00:27.51    \nframe=  117 fps=4.2 q=14.0 size=    5376KiB time=00:00:03.86 bitrate=11389.7kbits/s speed=0.138x elapsed=0:00:28.03    \nframe=  121 fps=4.2 q=12.0 size=    5376KiB time=00:00:04.00 bitrate=11010.0kbits/s speed=0.14x elapsed=0:00:28.60    \nframe=  125 fps=4.3 q=13.0 size=    5376KiB time=00:00:04.13 bitrate=10654.9kbits/s speed=0.142x elapsed=0:00:29.15    \nframe=  131 fps=4.4 q=16.0 size=    5376KiB time=00:00:04.33 bitrate=10163.1kbits/s speed=0.146x elapsed=0:00:29.66    \nframe=  137 fps=4.5 q=13.0 size=    5376KiB time=00:00:04.53 bitrate=9714.7kbits/s speed=0.15x elapsed=0:00:30.18    \nframe=  141 fps=4.6 q=16.0 size=    5376KiB time=00:00:04.66 bitrate=9437.2kbits/s speed=0.152x elapsed=0:00:30.70    \n[out#0/matroska @ 0000020c01cf9340] video:7297KiB audio:0KiB subtitle:0KiB other streams:0KiB global headers:0KiB muxing overhead: 0.020143%\nframe=  150 fps=4.9 q=16.0 Lsize=    7298KiB time=00:00:04.96 bitrate=12037.4kbits/s speed=0.161x elapsed=0:00:30.84    \n",
  "seconds": 31.49074649810791,
  "probe_out": {}
}